<svg width="766" height="847" viewBox="0 0 766 847" fill="none" xmlns="http://www.w3.org/2000/svg">
    <path d="M271.366 552.96C236.8 512.726 219.632 460.409 223.64 407.517C227.648 354.626 252.503 305.492 292.737 270.926C332.971 236.36 385.288 219.193 438.18 223.201C491.072 227.209 540.205 252.063 574.771 292.297L423.068 422.629L271.366 552.96Z" fill="#1F1E1E" />
    <mask id="path-2-inside-1_5_44" fill="white">
        <path d="M195.497 618.549C143.648 558.198 117.897 479.721 123.909 400.384C129.921 321.046 167.203 247.346 227.554 195.497C287.905 143.648 366.381 117.897 445.719 123.909C525.056 129.921 598.756 167.203 650.605 227.554L423.051 423.051L195.497 618.549Z" />
    </mask>
    <path d="M195.497 618.549C143.648 558.198 117.897 479.721 123.909 400.384C129.921 321.046 167.203 247.346 227.554 195.497C287.905 143.648 366.381 117.897 445.719 123.909C525.056 129.921 598.756 167.203 650.605 227.554L423.051 423.051L195.497 618.549Z" stroke="#363636" stroke-width="2" stroke-dasharray="21 21" mask="url(#path-2-inside-1_5_44)" />
    <rect x="169.682" y="625.92" width="635.006" height="49" transform="rotate(-40.0836 169.682 625.92)" fill="#141514" />
    <rect x="610.254" y="339.507" width="250" height="36.2667" transform="rotate(139.33 610.254 339.507)" fill="#1F1E1E" />
    <rect x="588.116" y="399.39" width="153.559" height="16.3357" transform="rotate(139.33 588.116 399.39)" fill="#1F1E1E" />
</svg>
    